<?xml version="1.0" encoding="utf-8"?>
<!-- Generator: Adobe Illustrator 22.1.0, SVG Export Plug-In . SVG Version: 6.00 Build 0)  -->
<svg version="1.1" xmlns="http://www.w3.org/2000/svg" xmlns:xlink="http://www.w3.org/1999/xlink" x="0px" y="0px"
	 viewBox="0 0 512 512" style="enable-background:new 0 0 512 512;" xml:space="preserve">
<style type="text/css">
	.st0{display:none;}
	.st1{display:inline;}
	.st2{fill:#8C8C8C;}
</style>
<g id="Layer_1" class="st0">
	<g id="t5oSbD.tif" class="st1">
		<g>
			<path d="M341,1c2.8,0.9,5.7,1.6,8.5,2.7c15.9,6.1,25.6,20.1,26,38.4c0.3,14.5,0.1,29,0,43.5c-0.1,12.1-4.8,22.3-14,30.4
				c-0.9,0.8-1.9,1.3-3,2.1c12.8,10,17.6,22.6,17.1,37.8c-0.3,10.5-0.4,21,0,31.5c0.7,16-3,30.1-17.5,41.2c1.3,0.6,2.2,0.7,2.9,1.2
				c9.9,8.2,14.5,18.8,14.7,31.5c0.1,6.7-0.1,13.3,0.1,20c0.1,1.6,0.9,3.7,2.1,4.6c36.8,26,47.5,79.6,18.4,118.9
				c-0.2,0.2-0.2,0.6-0.4,1.4c3.5,2.9,7.2,5.9,11.2,9.2c1.8-2.1,3.4-4,5-5.8c8.2-9.2,21-10.7,30.5-3.1
				c18.3,14.7,36.5,29.6,54.5,44.7c9.3,7.8,10.6,20.5,3.3,30.1c-6.5,8.5-13.2,16.8-20.4,24.6c-2.9,3.1-7.3,4.9-11,7.2
				c-3.3,0-6.7,0-10,0c-10.7-8-21.6-15.8-32.2-24.1c-9.9-7.7-19.4-15.7-29-23.7c-12-10-13.1-22.3-3.2-34.5c0.9-1.1,1.7-2.3,2.9-3.9
				c-4.1-3.4-8.1-6.6-12-9.8c-61.2,52.3-149.1,2.3-141-71.7c-2.2,0-4.3,0-6.4,0c-61.8,0-123.6,0-185.4,0c-9.8,0-18.9-1.7-26.9-7.6
				c-10.4-7.7-16.3-18.1-16.6-31c-0.4-15.8-0.4-31.7,0-47.5c0.3-12.7,6.1-23,16.4-31c-1.3-1.3-2.4-2.3-3.4-3.3
				c-8.5-8.1-13-18-13.1-29.7c-0.1-12.5,0.4-25-0.1-37.5c-0.7-15.8,3.6-29.3,16-38.8c-4-5.4-8.7-10.1-11.4-15.8
				c-2.6-5.4-4-11.7-4.2-17.7C8.6,71.2,9,56.9,9,42.5C9.1,21.9,21.1,6.8,41.3,1.8C41.9,1.7,42.4,1.3,43,1C142.3,1,241.7,1,341,1z
				 M192.5,16C192.5,16,192.5,16,192.5,16c-47.3,0-94.6,0-142,0c-15.8,0-26.4,10.6-26.5,26.3c-0.1,13.2,0,26.3,0,39.5
				c0,19.1,9.8,29,28.9,29c93.3,0,186.6,0,279.9,0c17.4,0,27.7-10.3,27.8-27.6c0.1-13.2,0.1-26.3,0-39.5
				C360.4,26.1,350.2,16,332.4,16C285.8,16,239.1,16,192.5,16z M192,125.9c-47,0-94,0-141,0c-16.7,0-27,10.4-27,27.2
				c0,13.2,0,26.3,0,39.5c0,17.6,10.3,28.1,27.8,28.1c93.6,0,187.3,0,280.9,0c17.4,0,27.7-10.2,27.8-27.6c0.1-13.2,0-26.3,0-39.5
				c-0.1-17.8-10.1-27.7-28-27.7C285.6,125.9,238.8,125.9,192,125.9z M360.7,276.3c0-4.4-0.2-8,0-11.6c1.1-16.9-10.5-29.8-28.8-29.2
				c-21,0.7-42,0.2-63,0.2c-72.6,0-145.3,0-217.9,0c-16.8,0-26.9,10.4-27,27.3c0,12.8,0,25.7,0,38.5c0.1,19.3,9.6,28.9,28.9,28.9
				c63.2,0,126.3,0,189.5,0.1c4.1,0,5.9-1.2,7.4-5.2c12.4-31.3,35.4-49.5,68.7-54.4C332.8,268.7,346.4,271.3,360.7,276.3z
				 M259.4,354.4c-0.5,37.5,30.7,68.9,68.9,69.3c37.5,0.4,69.2-30.5,69.7-68c0.5-38.2-29.9-69.9-67.6-70.5
				C291.3,284.5,260,315,259.4,354.4z M490.7,467.4c-1.5-2-2.7-4.5-4.6-6c-17-14.1-34.2-28.1-51.3-42.1c-4.6-3.8-8.3-3.5-12.1,1
				c-5.8,6.9-11.5,13.8-17.1,20.8c-3.8,4.7-3.5,8.2,1.1,12c17.2,14.2,34.5,28.3,51.8,42.4c4.5,3.7,8,3.4,11.7-1
				c6-7.1,11.9-14.4,17.7-21.6C488.9,471.5,489.5,469.7,490.7,467.4z"/>
			<path d="M161,52.9c19.8,0,39.6,0,59.4,0c1.7,0,3.4-0.1,5,0.2c3.7,0.7,6.4,3.3,5.9,6.8c-0.4,2.6-2.7,5.3-4.8,7.3
				c-1,1-3.5,0.7-5.3,0.7c-40.5,0-80.9,0-121.4,0c-1.5,0-3.1,0.1-4.5-0.3c-3.8-1.1-5.9-3.7-5.6-7.8c0.3-3.8,2.5-6.1,6.2-6.7
				c1.6-0.3,3.3-0.2,5-0.2C121,52.9,141,52.9,161,52.9C161,52.9,161,52.9,161,52.9z"/>
			<path d="M304.7,67.9c-4.1-0.4-7.1-4-6.7-8.3c0.3-4.3,3.8-7.3,8-6.9c4.1,0.4,7.2,4.1,6.8,8.2C312.5,65,308.7,68.2,304.7,67.9z"/>
			<path d="M262.4,52.5c4.1,0,7.5,3.5,7.5,7.7c0,4.2-3.4,7.7-7.5,7.7c-4.1,0-7.4-3.5-7.4-7.7C255,55.9,258.2,52.5,262.4,52.5z"/>
			<path d="M163.5,165.8c20.1,0,40.3,0,60.4,0c1.5,0,3,0,4.5,0.2c3.8,0.5,6,3,6.3,6.7c0.3,3.7-1.5,6.5-5.2,7.6
				c-1.7,0.5-3.6,0.6-5.4,0.6c-40.1,0-80.2,0-120.4,0c-1,0-2,0-3,0c-5-0.4-8-3.5-7.8-7.9c0.2-4.2,3.2-7,8.1-7
				c15.6-0.1,31.3,0,46.9,0C153.2,165.7,158.3,165.8,163.5,165.8z"/>
			<path d="M258,172.6c0.2-4.2,3.8-7.6,7.8-7.4c4.1,0.2,7.3,3.8,7.1,8.1c-0.2,4.2-3.7,7.6-7.8,7.4
				C261.1,180.4,257.9,176.8,258,172.6z"/>
			<path d="M316,173.1c-0.1,4.2-3.5,7.7-7.6,7.6c-4.1-0.1-7.4-3.6-7.3-7.9c0.1-4.2,3.5-7.7,7.6-7.6
				C312.7,165.3,316.1,168.9,316,173.1z"/>
			<path d="M161.2,290.4c-19.8,0-39.6,0-59.4,0c-1.8,0-3.7,0-5.5-0.3c-3.8-0.7-6.2-3.6-5.6-7c0.5-2.6,3-5.1,5.1-7
				c1.1-1,3.5-0.6,5.3-0.6c40.1,0,80.2,0,120.3,0c1.8,0,3.7,0,5.4,0.5c3.7,1,5.4,3.7,5.2,7.5c-0.2,3.6-2.1,5.9-5.6,6.7
				c-1.8,0.4-3.6,0.3-5.5,0.3C201.1,290.5,181.1,290.5,161.2,290.4C161.2,290.5,161.2,290.4,161.2,290.4z"/>
			<path d="M375.5,349.1c-0.1,1.3-0.1,3.2-0.3,5c-0.5,4.7-3.5,7.6-7.7,7.4c-4.1-0.2-7-3.4-7.2-8.1c-0.1-3.2,0.1-6.3-0.3-9.5
				c-1.3-9.9-8.3-22.8-22.2-25.1c-4.8-0.8-7.4-4.9-6.4-9c1-4.2,4.8-6.4,9.7-5.6c17.5,2.9,32.1,19.7,34,38.9
				C375.2,345,375.3,346.8,375.5,349.1z"/>
		</g>
	</g>
	<path class="st1" d="M328,326.6c4.2,0,7.8,2.4,7.8,6.6c0,12.9-1.5,31.4-1.5,44.3c0,3.4-3.7,4.8-6.3,4.8c-3.5,0-6.4-1.4-6.4-4.8
		c0-12.9-1.5-31.4-1.5-44.3C320.1,329,323.6,326.6,328,326.6z"/>
	<path class="st1" d="M328.1,406.4c-4.8,0-8.3-3.9-8.3-8.3c0-4.5,3.6-8.3,8.3-8.3c4.4,0,8.2,3.8,8.2,8.3
		C336.4,402.5,332.6,406.4,328.1,406.4z"/>
</g>
<g id="Layer_2">
	<g id="_x37_u5ax6.tif">
		<g>
			<g>
				<path class="st2" d="M483.1,448.3c-23.7-23.9-27.6-27.6-51.2-51.6c-9.6-9.7-20.5-13.1-33.6-8.4c-1.1,0.4-3.1,0.2-3.9-0.5
					c-5.5-5.1-10.7-10.4-16.1-15.7c0.9-1.3,1.5-2.1,2.1-2.9c36.5-46.9,33.4-111-7.5-154c-1.6-1.7-2.6-4.6-2.6-6.9
					c-0.2-43.5-0.2-87,0-130.5c0-10.6-3.6-19.5-10.7-27.1c-8.2-8.8-18.4-14.8-29.2-19.7c-26.7-12-55.1-17.6-83.9-21
					C235.5,8.8,224.8,8,214,7c-13.7,0-27.3,0-41,0c-1.6,0.3-3.2,0.7-4.9,0.8c-27.2,1.4-54,5-80.3,12.3c-19.3,5.4-38.1,12.1-54,24.9
					C22.7,54,17,65.3,17,80.1c0.3,74.6,0.3,149.3,0,223.9c-0.1,14.6,5.6,25.7,16.5,34.6c12.3,10.1,26.6,16.5,41.5,21.3
					c40.3,13.1,82,17.2,124.1,16.9c3.9,0,6.7,0.9,9.6,3.7c33.7,32.9,83.9,42.2,126.7,22.9c11.1-5,21.1-12.2,32.2-18.8
					c4.3,4.3,9.4,9.3,14.3,14.6c0.8,0.9,1.2,3,0.7,4.2c-4.9,13-2.3,24,7.5,33.8c22.4,22.3,24.8,24.8,47,47.3
					c6.3,6.4,12.8,12.1,21.6,14.4c3.3,0,6.7,0,10,0c0.4-0.2,0.8-0.6,1.3-0.7C493.8,491.2,500.3,465.6,483.1,448.3z M46.4,56.3
					c15.8-11.8,34.2-17.7,53-22.3c41.6-10.2,83.9-12.2,126.5-9.3c30.9,2.1,61.3,6.7,90.1,18.4c9,3.6,17.4,8.9,25.8,14
					c3.2,1.9,5.7,5.1,8,8.1c5,6.7,5.3,14-0.2,20.2c-4.7,5.3-10.2,10.1-16.2,13.7c-18.3,11.1-38.8,16.5-59.6,20.6
					c-26.4,5.2-53.1,7.4-80,7.3c-38.6-0.3-76.9-3.6-113.7-16.4c-11.7-4-23.1-9.6-33.4-16.5C29.3,82.7,29.5,68.9,46.4,56.3z
					 M347.6,162.6c-8.5,8.7-18.9,14.7-29.9,19.6c-1.2,0.5-2.9,0.4-4.3,0.2c-32.1-6.2-61.9-0.5-89.2,17.6c-1.5,1-3.3,1.8-5,1.8
					c-43,2-85.6-0.3-127.3-11.7c-14.8-4.1-29.3-9.1-42.1-17.9c-4.1-2.8-8.3-6-11-10c-2.6-3.7-4.4-8.7-4.6-13.2
					c-0.6-13.5-0.3-27-0.3-40.5c0-0.6,0.2-1.2,0.4-2.5c12.8,9.8,26.9,16,41.6,20.8c28.3,9.3,57.6,13.8,87.2,15.7
					c41.1,2.7,81.9,0.4,122.2-8.6c29.2-6.5,40.8-11.4,68.3-28c0,2.4,0,4.3,0,6.2c0,11.7-0.2,23.3,0.1,35
					C353.8,153.4,351.7,158.4,347.6,162.6z M352.9,181.7c0,6,0,11.1,0,16.9c-4.8-2.7-9.1-5.1-13.8-7.8
					C343.7,187.8,347.9,185,352.9,181.7z M33.9,181.2c2.7,1.7,4.8,3.1,7,4.5c19.8,12.3,41.7,19,64.2,24.1c29,6.6,58.5,9.3,88.2,9.2
					c2.7,0,5.3,0,9.2,0c-16.1,18.9-25.6,39.8-28.7,64.2c-10.1-0.8-20.1-1.3-29.9-2.4c-23.8-2.8-47.4-7.2-69.9-15.8
					c-11.2-4.3-22.1-9.3-31.2-17.4c-5.9-5.2-9.2-11.4-8.9-19.6C34.2,212.7,33.9,197.4,33.9,181.2z M189.6,360.2
					c-41.7-0.5-82.8-4.8-121.7-20.8c-8.8-3.6-16.9-9.2-24.8-14.7c-6.5-4.6-9.6-11.4-9.3-19.9c0.4-12.6,0.1-25.3,0.1-38
					c0-1.3,0.1-2.5,0.3-4.5c24.3,17.8,51.7,25.5,79.8,30.5c18,3.1,36.3,4.4,54.5,6.5c1.3,0.2,2.6,0.3,4.6,0.6
					c1,21.4,6.8,41.4,18.4,59.7C190.4,359.9,190,360.2,189.6,360.2z M289.4,396.9c-55,0.1-99.9-45.1-99.8-100.4
					c0.1-55.2,44.7-100.1,99.6-100.1c54.8-0.1,99.7,44.8,99.8,99.9C389.2,351.7,344.5,396.8,289.4,396.9z M469.1,480.9
					c-5,2.3-10.5,1.4-14.7-2.8c-11.5-11.4-12.8-12.8-24.2-24.3c-13-13.1-16.1-16.1-29.1-29.3c-4.5-4.6-5.4-9.9-2.8-15
					c2.4-4.8,7.5-7.6,12.9-6.4c2.6,0.6,5.4,2,7.3,3.9c24.7,24.5,29.2,29.2,53.6,53.9c2.2,2.2,3.3,5.5,4.1,6.9
					C476,474.8,473.8,478.7,469.1,480.9z"/>
				<path class="st2" d="M469.1,499.5l-10.3,0c-9.4-2.5-16.2-8.8-21.9-14.6l-4.4-4.4c-18.4-18.7-21.7-22.1-42.6-42.9
					c-10.1-10-12.6-21.2-7.7-34.3c0.4-1,0-2.9-0.6-3.7c-3.7-3.9-7.6-7.8-11-11.3c-1-1-2-2-3-3c-3.4,2-6.7,4.1-10,6.1
					c-7.4,4.6-14.4,9-22,12.4c-21.1,9.5-44.3,12.3-67.1,8.1c-22.7-4.1-43.5-14.9-60.2-31.1c-2.7-2.6-5.3-3.6-9.3-3.6
					c-48.3,0.3-87.8-5-124.3-16.9c-17.6-5.7-30.8-12.5-41.7-21.4c-11.3-9.3-16.8-20.7-16.7-35c0.3-76.6,0.3-152,0-223.9
					c-0.1-14.6,5.5-26.1,17-35.4c16.7-13.4,36.7-20.2,54.2-25c24.3-6.8,50.6-10.8,80.4-12.3c1.1-0.1,2.2-0.3,3.2-0.5
					c0.5-0.1,1-0.2,1.6-0.3l41.1,0c3.4,0.3,6.8,0.6,10.1,0.9c7.3,0.6,14.8,1.3,22.2,2.2c35,4.1,60.9,10.6,84.1,21
					c12.9,5.8,22.2,12.1,29.4,19.8c7.3,7.9,10.9,16.9,10.8,27.4c-0.2,37.7-0.2,79.1,0,130.5c0,2.3,1.1,5.1,2.5,6.6
					c19.8,20.9,31.5,47.8,32.9,75.9c1.4,28-7.6,56-25.4,78.8c-0.4,0.5-0.7,1-1.2,1.6c-0.2,0.3-0.4,0.6-0.6,0.9
					c1.2,1.2,2.4,2.4,3.6,3.6c4,3.9,8,8,12.2,11.8c0.6,0.6,2.3,0.8,3.4,0.4c12.8-4.6,23.9-1.8,34.2,8.5c17.3,17.5,23.8,24,35.6,35.9
					l15.6,15.7c8.3,8.4,11.6,19,9,29.2c-2.6,10.3-10.6,18.1-22,21.6c-0.2,0.1-0.5,0.2-0.8,0.4c-0.1,0.1-0.3,0.2-0.4,0.3L469.1,499.5
					z M459.1,498.5h9.8c0.1-0.1,0.2-0.1,0.3-0.2c0.3-0.2,0.6-0.4,1-0.5c11.1-3.4,18.8-11,21.3-20.9c2.5-9.9-0.7-20.2-8.8-28.3
					L467.1,433c-11.8-11.9-18.3-18.4-35.6-35.9c-9.9-10-20.8-12.7-33.1-8.3c-1.2,0.4-3.4,0.3-4.4-0.6c-4.1-3.8-8.2-7.9-12.2-11.8
					c-1.3-1.3-2.6-2.6-3.9-3.9l-0.3-0.3l0.3-0.3c0.3-0.5,0.6-0.9,0.9-1.2c0.5-0.7,0.8-1.2,1.2-1.7c17.6-22.6,26.5-50.3,25.2-78.1
					c-1.4-27.8-12.9-54.5-32.6-75.2c-1.6-1.7-2.8-4.7-2.8-7.3c-0.2-51.3-0.2-92.8,0-130.5c0-10.3-3.4-19.1-10.6-26.8
					c-7.1-7.6-16.3-13.9-29.1-19.6c-23-10.4-48.9-16.8-83.8-20.9c-7.4-0.9-14.9-1.5-22.1-2.2c-3.4-0.3-6.7-0.6-10.1-0.9l-41,0
					c-0.4,0.1-0.9,0.2-1.4,0.3c-1.1,0.2-2.2,0.5-3.4,0.5c-29.7,1.5-55.9,5.5-80.2,12.3c-17.3,4.8-37.3,11.5-53.8,24.9
					c-11.2,9.1-16.7,20.4-16.6,34.6c0.3,72,0.3,147.3,0,223.9c0,14,5.3,25.2,16.3,34.3c10.7,8.8,23.9,15.6,41.3,21.2
					c36.4,11.8,75.8,17.2,124,16.9c4.2,0,7.1,1.1,10,3.9c16.5,16.1,37.1,26.8,59.7,30.9c22.6,4.1,45.6,1.3,66.5-8.1
					c7.5-3.4,14.5-7.8,21.8-12.4c3.3-2.1,6.8-4.3,10.3-6.4l0.3-0.2l0.3,0.3c1.1,1.1,2.2,2.2,3.3,3.3c3.4,3.4,7.3,7.3,11,11.3
					c0.9,1,1.3,3.3,0.8,4.7c-4.8,12.7-2.3,23.5,7.4,33.2c20.9,20.8,24.2,24.2,42.6,42.9l4.4,4.4
					C443.3,489.9,449.9,496.1,459.1,498.5z M463.7,482.6c-3.5,0-6.8-1.4-9.6-4.2c-7.6-7.5-10.7-10.7-15.4-15.4
					c-2.3-2.3-5-5.1-8.9-8.9l-2.7-2.8c-10.7-10.7-14.3-14.4-26.3-26.5c-4.6-4.7-5.6-10.2-2.8-15.6c2.7-5.2,8.1-7.8,13.4-6.6
					c2.7,0.6,5.6,2.2,7.5,4c23.8,23.7,29.1,29.1,51.3,51.6l2.3,2.4c1.7,1.7,2.7,3.9,3.4,5.6c0.3,0.6,0.5,1.1,0.7,1.4l0.1,0.1l0,0.1
					c-0.3,7.2-2.5,11.2-7.4,13.5l0,0C467.5,482.2,465.6,482.6,463.7,482.6z M408.8,403.3c-4.1,0-7.9,2.4-10,6.4
					c-2.6,5-1.6,10.1,2.7,14.4c12,12.2,15.6,15.8,26.3,26.5l2.8,2.8c3.8,3.8,6.5,6.6,8.9,8.9c4.7,4.7,7.8,7.8,15.4,15.4
					c4,4,9.2,5,14.1,2.7l0,0c4.5-2.1,6.5-5.8,6.8-12.5c-0.2-0.4-0.4-0.8-0.7-1.4c-0.7-1.6-1.7-3.7-3.2-5.3l-2.3-2.4
					c-22.2-22.5-27.4-27.8-51.3-51.6c-1.8-1.8-4.5-3.2-7-3.8C410.4,403.4,409.6,403.3,408.8,403.3z M289.3,397.4
					c-26.6,0-51.7-10.4-70.7-29.4c-19.1-19.1-29.6-44.5-29.5-71.5c0.1-55.4,45-100.5,100.1-100.6c0,0,0.1,0,0.1,0
					c55.1,0,100.1,45,100.2,100.4c0.1,27.1-10.4,52.5-29.5,71.7c-18.9,19-44,29.4-70.6,29.5l0-0.5l0,0.5
					C289.4,397.4,289.4,397.4,289.3,397.4z M289.4,196.8c0,0-0.1,0-0.1,0c-54.5,0.1-99,44.8-99.1,99.6
					c-0.1,26.7,10.3,51.8,29.2,70.8c18.8,18.8,43.6,29.1,70,29.1c0,0,0.1,0,0.1,0c26.3,0,51.2-10.4,69.9-29.2
					c18.9-19,29.3-44.2,29.2-71C388.4,241.4,343.9,196.8,289.4,196.8z M189.6,360.7C189.6,360.7,189.6,360.7,189.6,360.7
					L189.6,360.7c-34.2-0.4-79-3.1-121.9-20.9c-8.8-3.6-17.1-9.3-24.9-14.8c-6.6-4.7-9.8-11.5-9.5-20.3c0.3-8.7,0.2-17.5,0.2-26.1
					c0-4-0.1-7.9-0.1-11.9c0-0.8,0.1-1.7,0.1-2.7c0-0.5,0.1-1.1,0.1-1.8l0.1-0.9l0.7,0.5C60.5,281,89.3,288,114,292.3
					c12.4,2.2,25.2,3.5,37.5,4.7c5.6,0.6,11.3,1.1,16.9,1.8c0.9,0.1,1.7,0.2,2.8,0.3l2.2,0.3l0,0.4c1.1,22,7.2,42,18.4,59.4l0.3,0.5
					l-0.6,0.2c-0.4,0.1-0.7,0.3-0.9,0.4C190.3,360.6,189.9,360.7,189.6,360.7z M189.6,359.7c0.1,0,0.4-0.1,0.7-0.3
					c0.1-0.1,0.2-0.1,0.4-0.2c-10.9-17.4-17.1-37.2-18.2-59l-1.3-0.2c-1-0.1-1.9-0.2-2.8-0.3c-5.6-0.7-11.4-1.2-16.9-1.8
					c-12.4-1.3-25.2-2.6-37.6-4.7c-24.6-4.3-53.2-11.2-79.3-30c0,0.3,0,0.6-0.1,0.9c-0.1,1-0.1,1.8-0.1,2.7c0,3.9,0,7.9,0.1,11.8
					c0.1,8.6,0.1,17.4-0.2,26.1c-0.3,8.5,2.8,15,9.1,19.5c7.7,5.4,15.9,11,24.7,14.6C110.8,356.6,155.4,359.3,189.6,359.7
					L189.6,359.7z M174.2,283.8l-0.5,0c-3.2-0.2-6.3-0.5-9.5-0.7c-6.7-0.5-13.7-0.9-20.5-1.7c-28-3.3-50.2-8.3-70-15.8
					c-10.1-3.8-21.7-8.9-31.4-17.5c-6.4-5.7-9.3-12.1-9.1-20c0.3-10.7,0.2-21.3,0.2-32.5c0-4.7-0.1-9.4-0.1-14.2v-0.9l0.8,0.5
					c0.9,0.6,1.7,1.1,2.5,1.6c1.6,1,3,2,4.5,2.9c21.1,13.2,44.2,19.6,64,24.1c27.9,6.3,56.7,9.3,88.1,9.2c1.8,0,3.5,0,5.6,0l4.7,0
					l-0.7,0.8c-16.2,19-25.5,40-28.5,63.9L174.2,283.8z M34.4,182.2c0,4.5,0,8.9,0.1,13.3c0.1,11.2,0.1,21.8-0.2,32.6
					c-0.2,7.6,2.6,13.8,8.8,19.3c9.6,8.5,21.1,13.5,31.1,17.3c19.7,7.5,41.9,12.5,69.8,15.7c6.8,0.8,13.7,1.3,20.4,1.7
					c3,0.2,6,0.4,9,0.6c3-23.6,12.2-44.3,28-63.2l-2.5,0c-2.1,0-3.8,0-5.6,0c-31.5,0.2-60.4-2.8-88.3-9.2
					c-19.9-4.5-43.1-10.9-64.3-24.2c-1.5-0.9-2.9-1.8-4.5-2.9C35.6,182.9,35,182.6,34.4,182.2z M192.2,202.9
					c-37.5,0-69.9-4-100.4-12.4c-13.2-3.6-28.5-8.6-42.2-17.9c-3.9-2.7-8.3-6-11.2-10.1c-2.8-4-4.5-9-4.7-13.4
					c-0.4-9.8-0.4-19.9-0.3-29.5c0-3.7,0-7.3,0-11c0-0.4,0.1-0.8,0.2-1.4c0.1-0.3,0.1-0.7,0.2-1.1l0.1-0.8l0.7,0.5
					c11.1,8.5,24.3,15.1,41.4,20.8c25.5,8.4,54,13.5,87.1,15.7c42.8,2.8,83.9-0.1,122.1-8.6c28.9-6.4,40.4-11.1,68.1-27.9l0.8-0.5
					v7.1c0,3.4,0,6.8,0,10.3c0,8.1-0.1,16.5,0.1,24.7c0.1,6.1-1.9,11.2-6.2,15.7l0,0c-7.4,7.6-17,13.9-30,19.7
					c-1.4,0.6-3.3,0.4-4.6,0.2c-31.9-6.2-61.8-0.3-88.8,17.5c-1.7,1.1-3.7,1.8-5.3,1.9C209.9,202.7,200.9,202.9,192.2,202.9z
					 M34.6,107c0,0.1,0,0.2-0.1,0.4c-0.1,0.5-0.2,0.9-0.2,1.2c0,3.7,0,7.3,0,11c-0.1,9.7-0.1,19.7,0.3,29.5
					c0.2,4.2,1.9,9.1,4.5,12.9c2.8,4,7.1,7.2,10.9,9.8C63.7,181,78.9,186,92,189.6c37.6,10.3,78,14,127.2,11.7
					c1.4-0.1,3.2-0.7,4.7-1.8c27.2-18,57.4-23.9,89.6-17.6c1.2,0.2,2.8,0.4,4-0.1c12.9-5.8,22.4-12,29.7-19.5l0,0
					c4.1-4.2,6-9.1,5.9-14.9c-0.2-8.2-0.1-16.6-0.1-24.7c0-3.4,0-6.8,0-10.3V107c-27.3,16.5-38.9,21.2-67.7,27.6
					c-38.3,8.5-79.5,11.4-122.3,8.6c-33.2-2.2-61.8-7.3-87.4-15.8C58.8,121.8,45.7,115.3,34.6,107z M353.4,199.5l-15.3-8.6l15.3-10
					V199.5z M340,190.8l12.4,7v-15.1L340,190.8z M195.1,127.6c-0.4,0-0.8,0-1.3,0c-47-0.3-82.1-5.4-113.8-16.4
					c-12-4.2-23.5-9.9-33.5-16.5C37.8,89,33.4,82.7,33.2,76c-0.2-6.8,4.2-13.6,12.9-20.1l0.3,0.4l-0.3-0.4
					C62.4,43.7,81.3,38,99.3,33.6c38.6-9.4,80.1-12.5,126.7-9.3c36.5,2.5,65.2,8.3,90.3,18.4c8.2,3.3,16,8,23.5,12.6l2.4,1.4
					c3.2,2,5.8,5.1,8.1,8.2c5.3,7.1,5.2,14.7-0.2,20.8c-4.9,5.5-10.5,10.3-16.4,13.8c-19,11.5-39.9,16.8-59.8,20.7
					C249,125.2,223.2,127.6,195.1,127.6z M191.6,24c-32.9,0-63.3,3.5-92.1,10.5c-17.9,4.4-36.6,10.1-52.9,22.2
					C38.2,63,34,69.5,34.2,76c0.2,6.3,4.5,12.3,12.8,17.9c9.9,6.6,21.4,12.3,33.3,16.4c31.6,11,66.6,16,113.5,16.3
					c28.6,0.1,54.7-2.3,79.9-7.3c19.7-3.9,40.6-9.1,59.4-20.6c5.7-3.5,11.3-8.2,16.1-13.6c5.2-5.8,5.2-12.8,0.2-19.6
					c-2.3-3-4.8-6.1-7.9-8l-2.4-1.4c-7.5-4.6-15.2-9.3-23.3-12.5c-24.9-10.1-53.5-15.9-90-18.3C214.2,24.4,202.7,24,191.6,24z"/>
			</g>
		</g>
	</g>
	<path class="st2" d="M289.3,240c5.9,0,10.9,3.3,10.9,9.2c0,17.9-2.1,43.7-2.1,61.7c0,4.7-5.1,6.6-8.7,6.6c-4.8,0-8.9-2-8.9-6.6
		c0-17.9-2.1-43.7-2.1-61.7C278.3,243.4,283.1,240,289.3,240z"/>
	<path class="st2" d="M289.4,351.2c-6.6,0-11.6-5.4-11.6-11.6c0-6.3,5-11.6,11.6-11.6c6.2,0,11.5,5.3,11.5,11.6
		C300.9,345.8,295.6,351.2,289.4,351.2z"/>
</g>
</svg>
