<?xml version="1.0" encoding="utf-8"?>
<!-- Generator: Adobe Illustrator 22.1.0, SVG Export Plug-In . SVG Version: 6.00 Build 0)  -->
<svg version="1.1" id="Layer_1" xmlns="http://www.w3.org/2000/svg" xmlns:xlink="http://www.w3.org/1999/xlink" x="0px" y="0px"
	 viewBox="0 0 512 512" style="enable-background:new 0 0 512 512;" xml:space="preserve">
<g id="Layer_1_1_">
	<g id="surface1">
		<path d="M443,101.6c0,6.1-4.9,11-11,11s-11-4.9-11-11s4.9-11,11-11S443,95.5,443,101.6z"/>
		<path d="M443,145.4c0,6.1-4.9,11-11,11s-11-4.9-11-11s4.9-11,11-11S443,139.4,443,145.4z"/>
		<path d="M398.4,123.5c0,6.1-4.9,11-11,11s-11-4.9-11-11s4.9-11,11-11S398.4,117.5,398.4,123.5z"/>
		<path d="M398.4,167.3c0,6.1-4.9,11-11,11s-11-4.9-11-11s4.9-11,11-11S398.4,161.3,398.4,167.3z"/>
		<path d="M354.6,145.4c0,6.1-4.9,11-11,11s-11-4.9-11-11s4.9-11,11-11S354.6,139.4,354.6,145.4z"/>
		<path d="M443,189.3c0,6.1-4.9,11-11,11s-11-4.9-11-11s4.9-11,11-11S443,183.2,443,189.3z"/>
		<path d="M90.9,101.6c0,6.1-4.9,11-11,11s-11-4.9-11-11s4.9-11,11-11S90.9,95.5,90.9,101.6z"/>
		<path d="M90.9,145.4c0,6.1-4.9,11-11,11s-11-4.9-11-11s4.9-11,11-11S90.9,139.4,90.9,145.4z"/>
		<path d="M135.5,123.5c0,6.1-4.9,11-11,11s-11-4.9-11-11s4.9-11,11-11C130.6,112.5,135.5,117.5,135.5,123.5z"/>
		<path d="M135.5,167.3c0,6.1-4.9,11-11,11s-11-4.9-11-11s4.9-11,11-11C130.6,156.3,135.5,161.3,135.5,167.3z"/>
		<path d="M179.3,145.4c0,6.1-4.9,11-11,11s-11-4.9-11-11s4.9-11,11-11S179.3,139.4,179.3,145.4z"/>
		<path d="M90.9,189.3c0,6.1-4.9,11-11,11s-11-4.9-11-11s4.9-11,11-11S90.9,183.2,90.9,189.3z"/>
		<path d="M80,442h352c6.1,0,11-4.9,11-11v-50.2c0-4.5-2.7-8.5-6.8-10.1c-2.9-1.2-5.8-2.7-8.5-4.5c-23.7-15.8-55-15.8-78.6,0
			c-12.6,8.4-27.9,10.1-41.7,5.6c37.3-12.7,43.6-50,48.5-79.5c5.7-34.3,10.2-48.2,31.6-48.2c6.1,0,11-4.9,11-11s-4.9-11-11-11h-24.6
			c-45.7,0-56.3,27.4-66.5,53.8c-6.3,16.4-13.5,35.4-29.4,52.3V178.3h32.9c6.1,0,11-4.9,11-11v-21.9c0-6.1-4.9-11-11-11h-87.7
			c-6.1,0-11,4.9-11,11v21.9c0,6.1,4.9,11,11,11H245v149.9c-15.9-16.9-23.1-35.8-29.4-52.3c-10.2-26.5-20.8-53.8-66.5-53.8h-24.6
			c-6.1,0-11,4.9-11,11s4.9,11,11,11c21.4,0,25.9,14,31.6,48.2c5,29.7,11.3,67.2,49.1,79.7c-13.7,4.3-28.9,2.5-41.3-5.8
			c-23.7-15.8-54.9-15.8-78.6,0c-1.9,1.3-4,2-6.4,2.2c-5.7,0.5-10,5.2-10,10.9V431C69,437.1,73.9,442,80,442z M365.6,387.2h21.9
			c6.1,0,11,4.9,11,11s-4.9,11-11,11h-21.9c-6.1,0-11-4.9-11-11S359.5,387.2,365.6,387.2z M267,409.1h-22c-6.1,0-11-4.9-11-11
			s4.9-11,11-11h22c6.1,0,11,4.9,11,11S273,409.1,267,409.1z M124.5,387.2h21.9c6.1,0,11,4.9,11,11s-4.9,11-11,11h-21.9
			c-6.1,0-11-4.9-11-11S118.5,387.2,124.5,387.2z"/>
		<path d="M234.1,68c-6.1,0-11,4.9-11,11v33.6h65.7V79c0-6.1-4.9-11-11-11H234.1z"/>
	</g>
</g>
</svg>
