<?xml version="1.0" encoding="utf-8"?>
<!-- Generator: Adobe Illustrator 22.1.0, SVG Export Plug-In . SVG Version: 6.00 Build 0)  -->
<svg version="1.1" id="Layer_4" xmlns="http://www.w3.org/2000/svg" xmlns:xlink="http://www.w3.org/1999/xlink" x="0px" y="0px"
	 viewBox="0 0 512 512" style="enable-background:new 0 0 512 512;" xml:space="preserve">
<style type="text/css">
	.st0{fill:#FFFFFF;}
</style>
<g id="ZE4Lli.tif">
	<g>
		<path d="M441.2,270.8c-1.7,7.8-4,15.2-9.1,21.5c-1.1,1.4-2.4,2.7-3.6,4.1c-5.1-5.2-10.1-10.2-15.2-15.4c4.5-5.5,7.1-11.8,5.6-19.3
			c-1-5.2-3.5-9.5-7.6-12.9c-8.3-6.6-20.6-6.4-28.5,0.6c-8.8,7.8-9.2,18.3-1.4,31.6c-5,5-9.9,10-15.1,15.2
			c-10.2-10.7-14.5-23.5-11.8-38.2c3.3-18,14.4-29.1,31.9-34.3c0-15,0-30,0-45.3c-10.8,0-21.5,0-32.5,0c0,7.1,0,14.1,0,21.6
			c-2,0-3.8,0-5.5,0c-7.3,0-14.6,0.1-21.8,0c-2,0-3,0.7-4.3,2.3c-4.8,5.9-4.3,11.1,0,17.1c3.1,4.3,5.1,9.3,7.9,14.4
			c-18.9,10.9-37.6,21.7-56.7,32.8c-3.4-6.2-6.9-12.1-9.8-18.3c-1.7-3.7-3.9-4.6-8-4.8c-5.6-0.3-8.5,1.4-10.7,6.5
			c-2.4,5.7-5.7,10.9-8.8,16.6c-19-11-37.7-21.8-56.8-32.8c3.8-7,7.4-13.9,11.2-20.7c1.1-1.9,0.7-3.2-0.1-5.2
			c-2.6-7.2-7.6-8.7-14.6-8c-6.5,0.6-13.1,0.1-20,0.1c0-7.2,0-14.3,0-21.6c-11.1,0-21.8,0-32.8,0c0,15.1,0,30.1,0,45.3
			c17.1,5,28.2,16,31.7,33.7c2.9,14.8-1.4,27.8-11.5,38.7c-5.2-5.2-10.2-10.2-15.2-15.3c8-12.8,7.4-23.9-1.8-31.7
			c-8.3-7.1-21-6.9-29,0.4c-8.9,8-9.3,19.2-1.3,31.2c-5.1,5.1-10.1,10.1-15.3,15.2c-6-5.9-9.8-13.4-11.6-22.1
			c-0.2-1-0.5-2.1-0.8-3.1c0-3.6,0-7.3,0-10.9c0.3-0.8,0.6-1.5,0.8-2.3c2.6-12.8,9.4-22.8,20.9-29.2c3.4-1.9,7.3-3.2,11.2-4.9
			c0-22.1,0-44.4,0-67.1c18.3,0,36.3,0,54.6,0c0-7.4,0-14.4,0-21.8c6.9,0,13.6-0.5,20.2,0.1c7.1,0.7,11.9-1.1,14.6-8.1
			c0.8-2,1-3.3-0.1-5.2c-3.7-6.4-7.3-12.8-11-19.6c2.7-1.6,5.2-3,7.7-4.5c16.2-9.4,32.5-18.9,48.7-28.3c0.2,0,0.5,0,0.7,0
			c3.8,7,7.6,14,11.5,20.9c0.3,0.5,1.1,1,1.7,1c3.4,0.1,6.8,0.1,10.1,0c0.6,0,1.4-0.5,1.7-1c3.9-6.9,7.6-13.9,11.5-20.9
			c0.2,0,0.5,0,0.7,0c18.7,10.9,37.5,21.8,56.4,32.8c-2.6,4.7-4.7,9.4-7.7,13.5c-4.4,5.9-4.8,11.2-0.1,17c1.2,1.5,2,2.4,3.9,2.3
			c8-0.1,16,0,24,0c1.1,0,2.3,0,3.7,0c0,7.6,0,14.6,0,22c18.3,0,36.3,0,54.6,0c0,22.7,0,45,0,67.3c14.8,4.2,25,13.1,30.2,27.4
			c1.1,3,1.7,6.3,2.5,9.4C441.2,264,441.2,267.4,441.2,270.8z M287.5,167.3c0-18.1-14.9-32.8-33-32.7c-17.9,0.1-32.6,14.9-32.6,32.8
			c0,18.1,14.9,32.8,33,32.7C272.8,200,287.5,185.2,287.5,167.3z"/>
		<path d="M68.2,394.6c1.5-3.3,2.6-6.9,4.7-9.7c4.5-6.1,10.9-8.5,18.4-8.5c37.7,0,75.5,0,113.2,0c70,0,140,0.2,210-0.1
			c13.1-0.1,22.9,4.5,26.7,18.4c0,2.4,0,4.9,0,7.3c-4.7,17-17.6,19.7-32.8,18c0,7.8,0,14.9,0,22c-7.3,0-14.6,0-21.9,0
			c0-7.2,0-14.5,0-21.6c-88.2,0-175.8,0-263.7,0c0,7.4,0,14.5,0,21.6c-7.3,0-14.6,0-21.9,0c0-7.2,0-14.4,0-21.9
			c-4.2,0-7.9,0.1-11.6,0c-7.1-0.3-12.9-3.2-16.9-9.1c-1.9-2.7-2.9-6-4.3-9.1C68.2,399.5,68.2,397.1,68.2,394.6z"/>
		<path class="st0" d="M272.9,69c-3.8,7-7.6,14-11.5,20.9c-0.3,0.5-1.1,1-1.7,1c-3.4,0.1-6.8,0.1-10.1,0c-0.6,0-1.4-0.5-1.7-1
			c-3.9-6.9-7.6-13.9-11.5-20.9C248.6,69,260.8,69,272.9,69z"/>
		<path d="M254.6,156.4c5.9,0,10.9,4.9,11,10.8c0.1,6-5,11.1-11,11.1c-5.9-0.1-10.8-5.1-10.8-11
			C243.8,161.4,248.8,156.4,254.6,156.4z"/>
		<g>
			<path d="M95.4,352.8c3.4,1.7,7.3,2.3,11.2,3.4v9.7h13c0-2.8,0-5.5,0-8.3c0-1.6,0.5-2.1,2.1-2.3c11.3-0.9,21.1-8.6,22.8-19.8
				c1.3-8.6,0.8-17.6,0.7-26.4c0-2.7-2.4-4.9-5.1-5.2c-8.3-1-16,0.4-21.6,7.4c-1.9,2.4-3.7,5-5.5,7.5c-0.2-0.4-0.5-0.8-0.8-1.2
				c-5.4-9.4-12.9-15-24.5-13.8c-4.2,0.5-6.8,2.5-6.9,6.8c-0.1,6.9-0.3,13.8,0.1,20.7C81.6,341.2,86.6,348.5,95.4,352.8z"/>
			<path d="M190,352.8c3.4,1.7,7.3,2.3,11.2,3.4v9.7h13c0-2.8,0-5.5,0-8.3c0-1.6,0.5-2.1,2.1-2.3c11.3-0.9,21.1-8.6,22.8-19.8
				c1.3-8.6,0.8-17.6,0.7-26.4c0-2.7-2.4-4.9-5.1-5.2c-8.3-1-16,0.4-21.6,7.4c-1.9,2.4-3.7,5-5.5,7.5c-0.2-0.4-0.5-0.8-0.8-1.2
				c-5.4-9.4-12.9-15-24.5-13.8c-4.2,0.5-6.8,2.5-6.9,6.8c-0.1,6.9-0.3,13.8,0.1,20.7C176.2,341.2,181.1,348.5,190,352.8z"/>
			<path d="M284.5,352.8c3.4,1.7,7.3,2.3,11.2,3.4v9.7h13c0-2.8,0-5.5,0-8.3c0-1.6,0.5-2.1,2.1-2.3c11.3-0.9,21.1-8.6,22.8-19.8
				c1.3-8.6,0.8-17.6,0.7-26.4c0-2.7-2.4-4.9-5.1-5.2c-8.3-1-16,0.4-21.6,7.4c-1.9,2.4-3.7,5-5.5,7.5c-0.2-0.4-0.5-0.8-0.8-1.2
				c-5.4-9.4-12.9-15-24.5-13.8c-4.2,0.5-6.8,2.5-6.9,6.8c-0.1,6.9-0.3,13.8,0.1,20.7C270.7,341.2,275.7,348.5,284.5,352.8z"/>
			<path d="M379.1,352.8c3.4,1.7,7.3,2.3,11.2,3.4v9.7h13c0-2.8,0-5.5,0-8.3c0-1.6,0.5-2.1,2.1-2.3c11.3-0.9,21.1-8.6,22.8-19.8
				c1.3-8.6,0.8-17.6,0.7-26.4c0-2.7-2.4-4.9-5.1-5.2c-8.3-1-16,0.4-21.6,7.4c-1.9,2.4-3.7,5-5.5,7.5c-0.2-0.4-0.5-0.8-0.8-1.2
				c-5.4-9.4-12.9-15-24.5-13.8c-4.2,0.5-6.8,2.5-6.9,6.8c-0.1,6.9-0.3,13.8,0.1,20.7C365.2,341.2,370.2,348.5,379.1,352.8z"/>
		</g>
	</g>
</g>
</svg>
