<?xml version="1.0" encoding="utf-8"?>
<!-- Generator: Adobe Illustrator 22.1.0, SVG Export Plug-In . SVG Version: 6.00 Build 0)  -->
<svg version="1.1" xmlns="http://www.w3.org/2000/svg" xmlns:xlink="http://www.w3.org/1999/xlink" x="0px" y="0px"
	 viewBox="0 0 535 388" style="enable-background:new 0 0 535 388;" xml:space="preserve">
<style type="text/css">
	.st0{display:none;}
	.st1{display:inline;fill:#EDEFF0;stroke:#000000;stroke-miterlimit:10;}
	.st2{display:inline;}
	.st3{fill:#FAFAFA;}
	.st4{fill:none;stroke:#FDE5D8;stroke-width:3;}
	.st5{fill:none;stroke:#EDE8FC;stroke-width:3;}
	.st6{fill:none;stroke:#EEEEEE;stroke-width:4;}
	.st7{opacity:0.2;fill:#FC6D26;enable-background:new    ;}
	.st8{fill:#FFFFFF;stroke:#FC6D26;stroke-width:3;stroke-linecap:round;}
	.st9{fill:#F9F7FE;}
	.st10{fill:#5C5C5C;}
	.st11{font-family:'Menlo-Bold';}
	.st12{font-size:22px;}
	.st13{fill:none;stroke:#C5BFD8;stroke-width:4;stroke-linecap:round;stroke-linejoin:round;stroke-miterlimit:10;}
	.st14{fill:#D9DBDB;}
	.st15{opacity:0.2;fill:#F26E2B;enable-background:new    ;}
	.st16{fill:#FFFFFF;stroke:#F26E2B;stroke-width:3;stroke-linecap:round;}
	.st17{fill:none;stroke:#D1D1D1;stroke-width:4;stroke-linecap:round;stroke-linejoin:round;stroke-miterlimit:10;}
	.st18{fill:#EEEEEE;}
	.st19{fill:#EEEEEE;stroke:#EEEEEE;stroke-width:4;stroke-linecap:round;stroke-linejoin:round;}
	.st20{fill:none;stroke:#F26E2B;stroke-width:3;stroke-linecap:round;}
	.st21{fill:#FBE3D6;stroke:#F36E2C;stroke-width:3;stroke-linecap:round;stroke-linejoin:round;}
	.st22{fill:#F36E2C;}
	.st23{fill:#FFFFFF;}
	.st24{fill:#F26E2B;}
	.st25{fill:#6955A3;}
	.st26{fill:#E0E0E0;}
	.st27{fill:#EFD3C7;}
	.st28{fill:#C0B9D6;}
	.st29{fill:#D5CEE6;}
	.st30{fill:#D2C9E2;}
	.st31{fill:#FBE3D6;}
	.st32{fill:#E1DCEF;}
</style>
<g id="Layer_2" class="st0">
	<rect class="st1" width="535" height="388"/>
</g>
<g id="Layer_1">
	<g id="Layer_1_1_" class="st0">
		<g class="st2">
			<g>
				<path class="st3" d="M286,157.9c8.8-9,25.5-7.2,37.1-7.7c3.2-9,10.2-17.6,19.9-19.9c7.4-1.8,19-1.4,20.8,7.7c0,0-0.8-23,23-23
					s18.7,25.3,18.7,25.3c11.6-8.6,25-9.5,33.8,3.2c2.3,3.2,0.9,4.5,4.6,5.4c1.9,0.9,7-0.5,9.7,0c6,0.9,17.6,9,17.6,9H286z"/>
				<path class="st3" d="M70.9,121c8.8-9,25.5-7.2,37.1-7.7c3.2-9,10.2-17.6,19.9-19.9c7.4-1.8,19-1.4,20.8,7.7c0,0-0.8-23,23-23
					s18.7,25.3,18.7,25.3c11.6-8.6,25-9.5,33.8,3.2c2.3,3.2,0.9,4.5,4.6,5.4c1.9,0.9,7-0.5,9.7,0c6,0.9,17.6,9,17.6,9L70.9,121z"/>
			</g>
			<g>
				<path class="st4" d="M246.5,167.5h60v62h-60V167.5z"/>
				<path class="st4" d="M309,167.5h50c1.4,0,2.5,1.1,2.5,2.5v57c0,1.4-1.1,2.5-2.5,2.5h-50c-1.4,0-2.5-1.1-2.5-2.5v-57
					C306.5,168.6,307.6,167.5,309,167.5z"/>
				<path class="st5" d="M165,140.5h69c1.4,0,2.5,1.1,2.5,2.5v22c0,1.4-1.1,2.5-2.5,2.5h-69c-1.4,0-2.5-1.1-2.5-2.5v-22
					C162.5,141.6,163.6,140.5,165,140.5z"/>
				<path class="st4" d="M153.5,167.5c-0.6,0-1,0.4-1,1v40.6c0,0.6,0.4,1,1,1h59.6c1.2,0,2.4,0.6,3.2,1.5l13.6,17.4
					c0.2,0.2,0.5,0.4,0.8,0.4h14.8c0.6,0,1-0.4,1-1v-60c0-0.6-0.4-1-1-1h-92V167.5z"/>
			</g>
			<g transform="translate(72 164)">
				<path class="st6" d="M58.9,46h82.8c0.8,0,1.5,0.3,2,0.9l13.8,17.2c0.5,0.6,1.2,0.9,2,0.9H314c1.4,0,2.5,1.1,2.5,2.5
					c0,0,0,0,0,0.1c-0.5,22.2-7,36.6-19.5,43.2c-1.5,0.8-1.8-2.6-14-2.8c-11.8-0.3-21.1,12-29.7,12c-8.6,0-18.4-12.5-31.5-12
					c-14.5,0.6-21.1,13.8-35.4,12.9c-12.5-0.8-19.3-12.8-30.3-12.9c-19.2-0.2-16,12.9-32.3,12.9c-13.6,0-20.8-8.7-27.4-11.4
					c-7.1-2.8-10-0.5-11.7-1.6C70.9,99,61.5,79.3,56.6,48.8c-0.2-1.4,0.7-2.6,2.1-2.9C58.7,46,58.8,46,58.9,46z"/>
				<circle class="st7" cx="93.5" cy="77.5" r="8.5"/>
				<circle class="st8" cx="93.5" cy="77.5" r="3.5"/>
				<circle class="st7" cx="118.5" cy="77.5" r="8.5"/>
				<circle class="st8" cx="118.5" cy="77.5" r="3.5"/>
				<circle class="st7" cx="248.5" cy="87.5" r="8.5"/>
				<circle class="st8" cx="248.5" cy="87.5" r="3.5"/>
				<circle class="st7" cx="223.5" cy="87.5" r="8.5"/>
				<circle class="st8" cx="223.5" cy="87.5" r="3.5"/>
				<circle class="st7" cx="273.5" cy="87.5" r="8.5"/>
				<circle class="st8" cx="273.5" cy="87.5" r="3.5"/>
			</g>
			<path class="st9" d="M71,321c22.3-20,39.3-30,51.1-30c17.6,0,31.7,25.2,52.6,25.2c16.6,0,25.9-25.2,47.3-25.2
				s34.4,25.2,50.6,25.2c15.5,0,34.1-25.2,53.1-25.2c17.1,0,34.2,25.2,49.2,25.2c11.8,0,23.7-23.5,46.3-25.2
				c9.4-0.7,26,7.7,49.8,25.2 M128,287.7c14.6-13.8,25.7-20.7,33.3-20.7c11.5,0,20.7,16,34.4,16c10.8,0,16.9-16,30.9-16
				s22.4,16,33,16c10.1,0,22.3-16,34.7-16c11.2,0,22.3,15.1,32,15.1c7.7,0,15.5-14,30.2-15.1c6.1-0.5,17,5.9,32.5,19"/>
			<text transform="matrix(1 0 0 1 257.352 205.9999)" class="st10 st11 st12">500</text>
		</g>
	</g>
	<g id="Layer_2_1_">
		<path class="st13" d="M335.1,238.4c13.4,10.5,27.6,19.8,41.5,29.5c3.4,2.4,6.7,5,10,7.5"/>
		<path class="st13" d="M353.6,212.9c16.2,11.3,32.3,22.7,48.5,34c1.2,0.8,2.7,1.4,4,2"/>
		<g transform="translate(229 62)">
			<path class="st14" d="M-202.4,95.4h50c2.8,0,5,2.2,5,5l0,0c0,2.8-2.2,5-5,5h-50c-2.8,0-5-2.2-5-5l0,0
				C-207.4,97.7-205.1,95.4-202.4,95.4z"/>
			<path class="st14" d="M-153.4,105.4c-2.8,0-5,2.2-5,5s2.2,5,5,5h-19c2.8,0,5-2.2,5-5s-2.2-5-5-5H-153.4z"/>
			<path class="st14" d="M-111,115.4h-60.4c-2.8,0-5,2.2-5,5s2.2,5,5,5h56.4C-113.9,122-112.2,118.2-111,115.4z"/>
		</g>
		<g transform="translate(315 143)">
			<path class="st14" d="M116.6,67.4h26c2.8,0,5,2.2,5,5l0,0c0,2.8-2.2,5-5,5h-26c-2.8,0-5-2.2-5-5l0,0
				C111.6,69.7,113.9,67.4,116.6,67.4z"/>
			<path class="st14" d="M125.6,87.4h56c2.8,0,5,2.2,5,5l0,0c0,2.8-2.2,5-5,5h-56c-2.8,0-5-2.2-5-5l0,0
				C120.6,89.7,122.9,87.4,125.6,87.4z"/>
			<path class="st14" d="M159.6,107.4h34c2.8,0,5,2.2,5,5l0,0c0,2.8-2.2,5-5,5h-34c-2.8,0-5-2.2-5-5l0,0
				C154.6,109.7,156.9,107.4,159.6,107.4z"/>
			<path class="st14" d="M143.6,77.4c-2.8,0-5,2.2-5,5s2.2,5,5,5h-19c2.8,0,5-2.2,5-5s-2.2-5-5-5C124.6,77.4,143.6,77.4,143.6,77.4z
				 M178.6,97.4c-2.8,0-5,2.2-5,5s2.2,5,5,5h-19c2.8,0,5-2.2,5-5s-2.2-5-5-5H178.6z"/>
		</g>
		<g id="cDqkhx_1_">
			<g>
				<circle class="st15" cx="286.1" cy="231.9" r="14"/>
				<circle class="st16" cx="286.1" cy="231.9" r="7.8"/>
				<path class="st17" d="M278.1,286.9c-2.3-4.6-7.2-6.2-11-8.9c-19.1-13.6-38.4-26.9-57.4-40.7c-5.6-4-8.1-10.6-9-17.4
					c-1.4-10.3-4.3-20.3-6-30.5c-0.3-1.7-1.4-2.2-2.5-3c-16.7-11.8-33.3-23.6-50-35.5c-3.4-2.4-4.9-2.1-7.5,1.5
					c-12.8,17.7-20.4,37.8-23.8,59c-3.9,24.5-0.9,48.4,11.8,70.5c1,1.7,2.2,3.4,1,5.5"/>
				<path class="st17" d="M175.1,286.4c7.3,6.1,8.9,6.1,17,1.6c4.1-2.3,8.9-2.9,12.9,0c5.4,3.8,10,4.1,15.7,0.1
					c3.8-2.7,8.9-3.1,13.4,0.3c4.7,3.4,9.3,4.2,14.6,0.2c4.4-3.3,9.5-3.4,14.4,0.3c5,3.7,8.2,3.6,12.9,0c5.2-4,10.6-3.3,15.4-0.3
					c5.1,3.2,9.2,3.7,14.2-0.1c4.3-3.3,9.6-3.2,13.9,0c5.3,4,10.1,3.5,15.1-0.1c4.5-3.2,9.2-3,13.4,0.1c5.4,4,10.2,3.6,15.6,0
					c5-3.3,10.1-2.7,15,0.9c3.5,2.6,7.8,3.1,11.4,0.4c5.9-4.4,11.2-4.4,17.1,0c3.7,2.7,8.2,2.7,11.8,0c2.3-1.7,5.1-2,7.1-3.9"/>
				<path class="st17" d="M339.1,230.4c-10.5-7.2-20.7-14.5-32-22.5c-15.2-10.5-30.6-20.7-46-31c-6-4.1-8.9-4.5-15.3,0.4
					c-9.3,7.2-39.9,27.2-46.2,31.6"/>
				<path class="st17" d="M218.6,198.4c4.8,3.5,9.6,7.1,14.5,10.5c6.4,4.4,12.9,8.8,19.5,13c3.7,2.3,8.3,2.7,11.9,0.4
					c3.9-2.6,6.9-6.2,6.2-11.9c-0.6-4.9-3.4-7.4-7-10.1c-7.7-5.8-15.4-10.4-23.6-16.9"/>
				<path class="st17" d="M377.6,287.9c9-10.2,16.4-21.6,24.5-32.5c6.3-8.5,12.5-17.2,19.2-26.7c-17.6-12.9-35.1-25.7-52.9-38.8
					c-5,7.8-69.8,94.6-72.3,100"/>
				<path class="st17" d="M208.6,237.9c-10.8,15.6-21.5,31.3-32.9,46.5c-0.8,1-1.1,2.1-2.6,1.9c-4.8-0.7-8.7,1.3-12.5,4
					c-3.3,2.4-6.8,0.8-9.4-1.1c-5.8-4.1-11.3-4.1-17.1-0.4c-3.1,2-5.5,2-9.1,0.2c-6.1-3-12.9-4.9-19.4-0.2c-4.1,3-8.1,2.6-12-0.1
					c-2.3-1.6-4.9-2.3-7.5-2.9"/>
				<path class="st17" d="M329.1,243.9c-2.4-3.7-6.5-6.1-11.2-6.2c-7.6-0.2-13.9,5.9-14,13.4c-0.1,6.4,4.1,11.9,10,13.5L329.1,243.9
					z"/>
			</g>
		</g>
		<circle class="st15" cx="154.1" cy="245.9" r="8.5"/>
		<circle class="st16" cx="154.1" cy="245.9" r="3.5"/>
		<circle class="st18" cx="76.6" cy="285.9" r="3.4"/>
		<path class="st19" d="M436.5,285.9c0,0,4.2-0.5,12,0"/>
		<line class="st20" x1="192.5" y1="105.9" x2="152.9" y2="158.6"/>
		<polygon class="st21" points="187.6,113.4 221.3,137.1 207.2,141.6 208.9,157.4 172.5,133.3 		"/>
		<circle class="st22" cx="192.6" cy="105.1" r="3.5"/>
		<circle class="st15" cx="151.1" cy="202.9" r="14"/>
		<g>
			<circle class="st23" cx="151.1" cy="202.9" r="5.8"/>
			<path class="st24" d="M151.1,210.2c-4,0-7.3-3.3-7.3-7.3s3.3-7.3,7.3-7.3s7.3,3.3,7.3,7.3S155.1,210.2,151.1,210.2z M151.1,198.7
				c-2.4,0-4.3,1.9-4.3,4.3s1.9,4.3,4.3,4.3s4.3-1.9,4.3-4.3S153.5,198.7,151.1,198.7z"/>
		</g>
		<g>
			<path class="st25" d="M278.1,328.6h-43.2c-1.1,0-2-0.9-2-2s0.9-2,2-2h43.2c1.1,0,2,0.9,2,2S279.2,328.6,278.1,328.6z"/>
			<path class="st26" d="M302.9,361.4H245c-1.1,0-2-0.9-2-2s0.9-2,2-2h57.9c1.1,0,2,0.9,2,2S304,361.4,302.9,361.4z"/>
			<path class="st27" d="M213,328.6h-9.6c-1.1,0-2-0.9-2-2s0.9-2,2-2h9.6c1.1,0,2,0.9,2,2S214.1,328.6,213,328.6z"/>
			<path class="st28" d="M377.7,328.6h-77.8c-1.1,0-2-0.9-2-2s0.9-2,2-2h77.8c1.1,0,2,0.9,2,2S378.8,328.6,377.7,328.6z"/>
			<path class="st29" d="M401,328.6h-9.6c-1.1,0-2-0.9-2-2s0.9-2,2-2h9.6c1.1,0,2,0.9,2,2S402.1,328.6,401,328.6z"/>
			<g>
				<circle class="st23" cx="189.4" cy="343.9" r="4.2"/>
				<path class="st24" d="M189.4,349.6c-0.3,0-0.6,0-0.9-0.1c-3.1-0.5-5.3-3.4-4.8-6.6c0.5-3.1,3.4-5.3,6.6-4.8
					c3.1,0.5,5.3,3.4,4.8,6.6c-0.2,1.5-1,2.9-2.3,3.8C191.8,349.3,190.6,349.6,189.4,349.6z M189.4,341.1c-1.3,0-2.5,1-2.7,2.3
					c-0.2,1.5,0.8,2.9,2.3,3.1s2.9-0.8,3.1-2.3c0.2-1.5-0.8-2.9-2.3-3.1C189.7,341.2,189.6,341.1,189.4,341.1z"/>
			</g>
			<path class="st28" d="M155.7,322.9c2.1,0,3.8,1.7,3.8,3.8s-1.7,3.8-3.8,3.8s-3.8-1.7-3.8-3.8S153.6,322.9,155.7,322.9
				 M155.7,318.9c-4.3,0-7.8,3.5-7.8,7.8s3.5,7.8,7.8,7.8s7.8-3.5,7.8-7.8C163.4,322.4,160,318.9,155.7,318.9L155.7,318.9z"/>
			<circle class="st27" cx="314" cy="359.3" r="2.8"/>
			<path class="st30" d="M109.4,359.6c-0.2,0-0.5,0-0.7-0.1c-2.6-0.4-4.4-2.8-4-5.4s2.8-4.4,5.4-4s4.4,2.8,4,5.4
				C113.8,358,111.7,359.6,109.4,359.6z M109.4,351.1c-1.8,0-3.4,1.3-3.7,3.2c-0.3,2,1.1,4,3.1,4.3s4-1.1,4.3-3.1s-1.1-4-3.1-4.3
				C109.8,351.2,109.6,351.1,109.4,351.1z"/>
			<path class="st25" d="M428.4,161.6c-0.3,0-0.7,0-1-0.1c-1.8-0.3-3.3-1.2-4.4-2.7c-1.1-1.4-1.5-3.2-1.2-5s1.2-3.3,2.7-4.4
				c1.4-1.1,3.2-1.5,5-1.2s3.3,1.2,4.4,2.7c1.1,1.4,1.5,3.2,1.2,5l0,0c-0.3,1.8-1.2,3.3-2.7,4.4
				C431.2,161.1,429.8,161.6,428.4,161.6z M428.4,150.2c-1,0-2,0.3-2.8,0.9c-1,0.7-1.7,1.8-1.9,3.1s0.1,2.5,0.9,3.5s1.8,1.7,3.1,1.9
				c1.2,0.2,2.5-0.1,3.5-0.9s1.7-1.8,1.9-3.1l0,0c0.2-1.2-0.1-2.5-0.9-3.5s-1.8-1.7-3.1-1.9C428.9,150.2,428.7,150.2,428.4,150.2z"
				/>
			<g>
				<path class="st25" d="M317.1,130.5h-9.4c-1.1,0-2-0.9-2-2c0-1.1,0.9-2,2-2h9.4c1.1,0,2,0.9,2,2
					C319.1,129.6,318.2,130.5,317.1,130.5z"/>
				<path class="st25" d="M312.4,135.1c-1.1,0-2-0.9-2-2v-9.4c0-1.1,0.9-2,2-2s2,0.9,2,2v9.4C314.4,134.3,313.5,135.1,312.4,135.1z"
					/>
			</g>
			<path class="st31" d="M141.8,106.7l-2.3-1.5c-0.6-0.4-0.5-0.9,0-1.3l2.3-1.5l1.5-2.3c0.4-0.6,0.9-0.5,1.3,0l1.5,2.3l2.3,1.5
				c0.6,0.4,0.5,0.9,0,1.3l-2.3,1.5l-1.5,2.3c-0.4,0.6-0.9,0.5-1.3,0L141.8,106.7"/>
			<path class="st27" d="M383.3,154.8l-4-2.5c-1-0.6-0.9-1.6,0-2.2l4-2.5l2.5-4c0.6-1,1.6-0.9,2.2,0l2.5,4l4,2.5
				c1,0.6,0.9,1.6,0,2.2l-4,2.5l-2.5,4c-0.6,1-1.6,0.9-2.2,0L383.3,154.8"/>
			<path class="st27" d="M396.1,195.2l-1.9-1.2c-0.5-0.3-0.5-0.8,0-1.1l1.9-1.2l1.2-1.9c0.3-0.5,0.8-0.5,1.1,0l1.2,1.9l1.9,1.2
				c0.5,0.3,0.5,0.8,0,1.1l-1.9,1.2l-1.2,1.9c-0.3,0.5-0.8,0.5-1.1,0L396.1,195.2"/>
			<path class="st29" d="M418.9,193l-5.2-3.3c-1.3-0.8-1.3-2.1,0-2.9l5.2-3.3l3.3-5.2c0.8-1.3,2.1-1.3,2.9,0l3.3,5.2l5.2,3.3
				c1.3,0.8,1.3,2.1,0,2.9l-5.2,3.3l-3.3,5.2c-0.8,1.3-2.1,1.3-2.9,0L418.9,193"/>
		</g>
		<g>
			<path class="st32" d="M287.6,94.3c8.8-9,25.5-7.2,37.1-7.7c3.2-9,10.2-17.6,19.9-19.9c7.4-1.8,19-1.4,20.8,7.7c0,0-0.8-23,23-23
				s18.7,25.3,18.7,25.3c11.6-8.6,25-9.5,33.8,3.2c2.3,3.2,0.9,4.5,4.6,5.4c1.9,0.9,7-0.5,9.7,0c6,0.9,17.6,9,17.6,9L287.6,94.3z"/>
			<path class="st32" d="M72.5,57.4c8.8-9,25.5-7.2,37.1-7.7c3.2-9,10.2-17.6,19.9-19.9c7.4-1.8,19-1.4,20.8,7.7c0,0-0.8-23,23-23
				S192,39.8,192,39.8c11.6-8.6,25-9.5,33.8,3.2c2.3,3.2,0.9,4.5,4.6,5.4c1.9,0.9,7-0.5,9.7,0c6,0.9,17.6,9,17.6,9H72.5z"/>
		</g>
		<circle class="st28" cx="209.1" cy="255.6" r="2.7"/>
		<circle class="st28" cx="202.2" cy="265.4" r="2.7"/>
		<circle class="st28" cx="195.4" cy="275.3" r="2.7"/>
	</g>
</g>
</svg>
