<?xml version="1.0" encoding="utf-8"?>
<!-- Generator: Adobe Illustrator 22.1.0, SVG Export Plug-In . SVG Version: 6.00 Build 0)  -->
<svg version="1.1" id="Layer_1" xmlns="http://www.w3.org/2000/svg" xmlns:xlink="http://www.w3.org/1999/xlink" x="0px" y="0px"
	 viewBox="0 0 512 512" style="enable-background:new 0 0 512 512;" xml:space="preserve">
<style type="text/css">
	.st0{fill:#FFFFFF;}
	.st1{fill:none;}
</style>
<g id="Layer_3">
	<g id="_x32_pcnUN.tif">
		<g>
			<path d="M108.2,213.8c14.3,2.7,28.2,5.5,42.1,7.8c50.7,8.5,101.7,12.2,153.1,9.6c35.7-1.8,70.9-6.7,105.2-17.1
				c0.7-0.2,1.4-0.2,2.7-0.5c1.3,8.3,2.8,16.3,3.8,24.4c6,49.6,8.9,99.3,8.2,149.3c-0.1,4.9-0.5,9.7-0.4,14.6c0,1.5,1,3.1,1.8,4.5
				c2.4,3.9,5.5,7.4,7.2,11.6c2.5,6.4-1.2,11.5-7.9,10.6c-24.2-3.1-47.6,2.8-71.2,6.3c-38.2,5.7-76.6,7.9-115.2,6.7
				c-33.2-1.1-66-5.8-98.7-11.1c-13.7-2.2-27.4-4-41.3-1.9c-1.6,0.2-3.3,0.2-4.8,0c-4.6-0.6-7.5-4.9-5.6-9.8c1.6-4.3,4.7-8,7.1-12.1
				c0.9-1.6,2.2-3.4,2.2-5.1c-1.3-32.4-0.3-64.8,1.7-97.2c1.9-29.9,4.4-59.7,9.7-89.2C107.9,214.8,108.1,214.3,108.2,213.8z
				 M220.1,397.3c5.7-4.4,11.5-8.7,17.1-13.3c4.8-3.9,9.6-7.1,16.2-6.1c2.3,0.4,3-0.9,3-3.1c-0.1-4-0.5-8,0.1-12
				c1-7.1-1.9-12.3-6.9-16.8c-1-0.9-2.8-1.5-4.1-1.2c-9.2,2.2-17.4,0.1-23.6-6.8c-4.1-4.6-7.1-10.1-10.2-15.5
				c-1.7-3-0.7-4.7,2.8-5.2c7.1-1,14.2-1.2,21.1,1.2c8.3,2.9,13.4,8.7,15.8,17.1c0.7,2.4,2.3,4.5,3.5,6.8c0.4-0.1,0.7-0.3,1.1-0.4
				c0.1-0.6,0.3-1.1,0.3-1.7c0-8.7,0.1-17.5-0.1-26.2c0-1.3-1.1-2.5-1.8-3.8c-2.2-3.9-5.5-7.6-6.6-11.9c-3-11.8,3-21.2,10-30
				c1.6-2,3.7-1.2,5,0.8c2.6,4.2,5.4,8.4,7.3,13c4.3,10.5,2.8,20.2-5.6,28.5c-0.8,0.8-1.3,2.4-1.3,3.6c-0.1,8.4-0.1,16.7-0.1,25.1
				c0,0.9,0.2,1.8,0.4,2.7c0.4,0.1,0.8,0.2,1.2,0.3c1.2-2.4,2.7-4.8,3.5-7.3c2.4-7.8,7.1-13.4,14.7-16.3c7.2-2.7,14.7-2.5,22.1-1.5
				c3,0.4,4.4,2.3,2.7,5c-3.3,5.5-6.4,11.3-10.7,16c-6,6.7-14.1,8.5-22.9,6.4c-0.9-0.2-2.4-0.7-2.8-0.2c-2.8,3.4-6.9,6.7-7.8,10.6
				c-1.3,5.9-0.3,12.3-0.3,18.7c8.1,0.1,14.4,3.8,20.7,7.6c6,3.6,12.1,6.9,18,10.5c2.4,1.5,4,0.9,5.9-0.8
				c21.1-17.9,30.9-40.5,28.3-68.2c-4.5-46.7-50.8-78.6-96.1-66.3c-37.9,10.2-61.8,46-56.4,85.1
				C186.8,365.9,199.4,384.1,220.1,397.3z"/>
			<path d="M276.7,225.2c-49.4,0-92.3-4.2-134.8-12.1c-12.7-2.4-25.2-5.7-37.8-8.5c-2.7-0.6-3.9-2.4-4.5-4.9
				c-1.8-7.8-0.8-14.9,5.4-20.5c1-0.9,2-1.9,2.9-2.9c3.5-3.9,3.7-6.8,0.5-11c-5.2-6.9-7.1-14.6-4.3-22.9c1-3,3.3-5.8,5.7-8.1
				c2.9-2.8,6.3-2.8,10.6-1.5c15.3,4.4,30.6,8.8,46.2,11.8c38.9,7.6,78.4,10.1,118,9c36.1-1,71.9-4.5,106.5-15.5
				c3.7-1.2,7.4-2.3,10.9-4c2.6-1.2,4.7-0.8,6.9,0.6c9.1,5.4,12.5,15.8,8.3,26.4c-1.1,2.8-2.5,5.4-3.8,8.1
				c-2.7,5.7-2.8,11.2,0.9,16.6c2.8,4.1,4.3,8.7,4,13.8c-0.2,2.6-1,4.2-3.8,5.2c-20.3,7-41.2,11.5-62.5,14.7
				C325.1,223.7,297.9,225.5,276.7,225.2z"/>
			<path class="st0" d="M220.1,397.3c-20.7-13.2-33.2-31.4-36.5-55.3c-5.4-39.2,18.6-74.9,56.4-85.1c45.3-12.2,91.6,19.6,96.1,66.3
				c2.6,27.6-7.2,50.3-28.3,68.2c-1.9,1.6-3.5,2.2-5.9,0.8c-5.9-3.6-12.1-6.9-18-10.5c-6.3-3.8-12.6-7.5-20.7-7.6
				c0-6.4-1-12.8,0.3-18.7c0.9-3.9,5-7.2,7.8-10.6c0.3-0.4,1.9,0,2.8,0.2c8.8,2.2,16.9,0.3,22.9-6.4c4.3-4.7,7.4-10.5,10.7-16
				c1.6-2.7,0.3-4.6-2.7-5c-7.5-1-15-1.2-22.1,1.5c-7.6,2.9-12.4,8.5-14.7,16.3c-0.8,2.6-2.3,4.9-3.5,7.3c-0.4-0.1-0.8-0.2-1.2-0.3
				c-0.1-0.9-0.4-1.8-0.4-2.7c0-8.4-0.1-16.7,0.1-25.1c0-1.2,0.5-2.8,1.3-3.6c8.4-8.2,9.9-17.9,5.6-28.5c-1.9-4.6-4.7-8.7-7.3-13
				c-1.2-2-3.3-2.8-5-0.8c-7,8.7-13,18.1-10,30c1.1,4.2,4.4,7.9,6.6,11.9c0.7,1.2,1.8,2.5,1.8,3.8c0.2,8.7,0.1,17.5,0.1,26.2
				c0,0.6-0.2,1.1-0.3,1.7c-0.4,0.1-0.7,0.3-1.1,0.4c-1.2-2.3-2.8-4.4-3.5-6.8c-2.4-8.4-7.5-14.2-15.8-17.1
				c-6.9-2.4-14-2.2-21.1-1.2c-3.5,0.5-4.5,2.2-2.8,5.2c3.1,5.4,6.1,10.9,10.2,15.5c6.2,6.9,14.4,9,23.6,6.8
				c1.2-0.3,3.1,0.3,4.1,1.2c4.9,4.4,7.8,9.7,6.9,16.8c-0.5,3.9-0.2,8-0.1,12c0.1,2.2-0.6,3.5-3,3.1c-6.6-1-11.4,2.2-16.2,6.1
				C231.6,388.6,225.8,392.9,220.1,397.3z"/>
			<g>
				<path class="st1" d="M180.4,114.5c-1.4,0.3-2.6,1.7-3.9,2.5c0,0.6,0,1.2,0,1.8c1.5,0.9,2.8,2.4,4.4,2.6c2.3,0.4,3.6-1.3,3.4-3.7
					C184.3,115.3,182.6,114.1,180.4,114.5z"/>
				<path class="st1" d="M157.5,115.5c-0.7,0.8-2.6,2-3,3.6c-0.6,2.5,2.1,5,4.7,5c2.5,0,4.1-1.1,4-3.8
					C163.3,117.4,161.8,115.8,157.5,115.5z"/>
				<path class="st1" d="M197.3,104.8c-1.5-1.1-2.8-2.8-4.4-3.1c-2.5-0.5-4.2,1.3-4.4,3.9c-0.2,3.1,2.1,3.8,4.4,3.5
					c1.5-0.2,2.8-1.6,4.3-2.5C197.2,106,197.2,105.4,197.3,104.8z"/>
				<path class="st1" d="M171.8,127.5c-2.2-0.1-3.9,0.9-3.5,3.2c0.3,1.6,1.7,3,2.6,4.4c0.6,0,1.2,0,1.8,0c0.9-1.3,2.4-2.5,2.6-3.9
					C175.8,128.8,174.1,127.6,171.8,127.5z"/>
				<path class="st1" d="M197.1,127.7c-1.2,0.3-3.1,2.3-3,3.1c0.4,1.6,2,3,3.1,4.4c0.6,0,1.2-0.1,1.7-0.1c0.8-1.4,2.2-2.7,2.3-4.1
					C201.4,128.2,199.3,127.1,197.1,127.7z"/>
				<path class="st1" d="M202.8,112.2c-2.2-0.1-3.9,0.9-3.5,3.2c0.3,1.6,1.7,3,2.6,4.4c0.6,0,1.2,0,1.8,0c0.9-1.3,2.4-2.5,2.6-3.9
					C206.8,113.5,205.2,112.3,202.8,112.2z"/>
				<g>
					<path class="st1" d="M180.4,114.5c-1.4,0.3-2.6,1.7-3.9,2.5c0,0.6,0,1.2,0,1.8c1.5,0.9,2.8,2.4,4.4,2.6
						c2.3,0.4,3.6-1.3,3.4-3.7C184.3,115.3,182.6,114.1,180.4,114.5z"/>
					<path class="st1" d="M171.8,127.5c-2.2-0.1-3.9,0.9-3.5,3.2c0.3,1.6,1.7,3,2.6,4.4c0.6,0,1.2,0,1.8,0c0.9-1.3,2.4-2.5,2.6-3.9
						C175.8,128.8,174.1,127.6,171.8,127.5z"/>
					<path class="st1" d="M197.3,104.8c-1.5-1.1-2.8-2.8-4.4-3.1c-2.5-0.5-4.2,1.3-4.4,3.9c-0.2,3.1,2.1,3.8,4.4,3.5
						c1.5-0.2,2.8-1.6,4.3-2.5C197.2,106,197.2,105.4,197.3,104.8z"/>
					<path class="st1" d="M157.5,115.5c-0.7,0.8-2.6,2-3,3.6c-0.6,2.5,2.1,5,4.7,5c2.5,0,4.1-1.1,4-3.8
						C163.3,117.4,161.8,115.8,157.5,115.5z"/>
					<path class="st1" d="M197.1,127.7c-1.2,0.3-3.1,2.3-3,3.1c0.4,1.6,2,3,3.1,4.4c0.6,0,1.2-0.1,1.7-0.1c0.8-1.4,2.2-2.7,2.3-4.1
						C201.4,128.2,199.3,127.1,197.1,127.7z"/>
					<path class="st1" d="M202.8,112.2c-2.2-0.1-3.9,0.9-3.5,3.2c0.3,1.6,1.7,3,2.6,4.4c0.6,0,1.2,0,1.8,0c0.9-1.3,2.4-2.5,2.6-3.9
						C206.8,113.5,205.2,112.3,202.8,112.2z"/>
					<path d="M379.7,113.3c-12.1-4.3-22.1-11.2-31.7-19.7c-13.4-11.9-30.3-14.3-47.6-14.4c-4.7,0-9-0.8-13.3-2.8
						c-9.2-4.2-18.4-8.2-28.7-8.8c-27.1-1.5-51.2,5.9-72.2,23.2c-4.2,3.4-8.6,5.5-14,6.3c-20,3.1-36.5,12-47.4,30.8
						c6.2,1.7,12.3,3.5,18.4,5c38.8,9.5,78.3,13.5,118.1,14.1c37.2,0.5,74.2-1.9,110.6-10.4c8.6-2,17.1-4.8,26.1-7.4
						C393.5,121.1,387.2,115.9,379.7,113.3z M159.3,124.1c-2.7,0-5.4-2.5-4.7-5c0.4-1.6,2.3-2.8,3-3.6c4.3,0.2,5.8,1.9,5.8,4.8
						C163.3,123,161.7,124.1,159.3,124.1z M175.3,131.2c-0.3,1.4-1.7,2.6-2.6,3.9c-0.6,0-1.2,0-1.8,0c-0.9-1.5-2.4-2.8-2.6-4.4
						c-0.4-2.3,1.3-3.3,3.5-3.2C174.1,127.6,175.8,128.8,175.3,131.2z M181,121.4c-1.6-0.2-3-1.7-4.4-2.6c0-0.6,0-1.2,0-1.8
						c1.3-0.9,2.5-2.3,3.9-2.5c2.2-0.4,3.8,0.8,4,3.3C184.6,120.1,183.3,121.8,181,121.4z M188.5,105.5c0.2-2.6,1.9-4.3,4.4-3.9
						c1.6,0.3,3,2,4.4,3.1c0,0.6,0,1.2-0.1,1.8c-1.4,0.9-2.8,2.2-4.3,2.5C190.6,109.4,188.3,108.6,188.5,105.5z M201.2,130.9
						c-0.1,1.4-1.5,2.7-2.3,4.1c-0.6,0-1.2,0.1-1.7,0.1c-1.1-1.5-2.7-2.8-3.1-4.4c-0.2-0.8,1.7-2.8,3-3.1
						C199.3,127.1,201.4,128.2,201.2,130.9z M206.4,115.9c-0.3,1.4-1.7,2.6-2.6,3.9c-0.6,0-1.2,0-1.8,0c-0.9-1.5-2.4-2.8-2.6-4.4
						c-0.4-2.3,1.3-3.3,3.5-3.2C205.2,112.3,206.8,113.5,206.4,115.9z"/>
				</g>
			</g>
		</g>
	</g>
</g>
</svg>
