<?xml version="1.0" encoding="utf-8"?>
<!-- Generator: Adobe Illustrator 22.1.0, SVG Export Plug-In . SVG Version: 6.00 Build 0)  -->
<svg version="1.1" id="Layer_1" xmlns="http://www.w3.org/2000/svg" xmlns:xlink="http://www.w3.org/1999/xlink" x="0px" y="0px"
	 viewBox="0 0 512 512" style="enable-background:new 0 0 512 512;" xml:space="preserve">
<g id="Layer_2_1_">
	<g id="_x35_X5oBh.tif_1_">
		<g>
			<path d="M286.4,67.5c5.1,6,10.7,11.7,15.3,18c7.9,10.8,12.8,23,13.1,36.6c0.3,14.8-5.3,27.6-13.8,39.2c-2.7,3.7-5.8,7.1-9.3,11.5
				c-0.1-2.3-0.3-3.6-0.3-4.9c-0.2-16.8-0.4-33.6-0.6-50.5c0-1.2,0.3-2.8-0.3-3.6c-1.1-1.4-2.8-3.1-4.2-3.1c-1.4,0-3,1.9-4,3.4
				c-0.6,1-0.2,2.6-0.2,3.9c0,17.9,0,35.8,0,54.1c-1.4-1.4-2.9-2.9-4.3-4.5c-10.9-12.3-18.8-26.1-19.6-43
				c-0.7-14.6,4.3-27.6,12.5-39.3c4.4-6.4,9.9-12,15-17.9C285.9,67.5,286.1,67.5,286.4,67.5z"/>
			<path d="M148.1,320.4c25.9,0,51.2-1.3,75.8,7.4c11.1,3.9,22.8,5.2,34.6,5.3c18.5,0,37.1,0,55.6,0c1.7,0,3.4,0,5.1,0
				c8.1,0.3,14.2,6.3,14.1,13.8c-0.1,7.4-6.3,13.2-14.3,13.2c-21.2,0.1-42.4-0.1-63.7,0.1c-11.1,0.1-21.3,3.5-30.2,10.4
				c-3.2,2.5-4,4.9-2.1,7c2.3,2.6,4.7,1.8,7.1,0c8.2-6.5,17.6-8.9,28-8.9c19.5,0.1,39,0,58.5,0c13.6,0,20.8-5.4,24.9-18.5
				c0.3-1,1.3-2.1,2.3-2.4c24-9.9,47.9-19.8,71.9-29.7c4.9-2,9.8-1.8,14.5,0.6c7.4,3.7,8.8,12,3,17.9c-1.4,1.4-3,2.5-4.6,3.6
				c-43.6,28.6-87.2,57.3-130.8,85.8c-10.2,6.7-21.2,8.7-33.2,5.9c-37.4-8.7-74.7-17.4-112.1-25.9c-3.5-0.8-4.5-2.2-4.5-5.7
				c0.2-25.2,0.1-50.5,0.1-75.7C148.1,323.4,148.1,322.1,148.1,320.4z"/>
			<path d="M395.2,317.4c-18.3,7.5-36.2,14.9-54.1,22.3c-0.3-0.3-0.6-0.5-0.7-0.8c-4.4-10-12.3-14.3-23-14.3c-19.4,0-38.8,0-58.2,0
				c-12.4,0-24.5-1.9-36.3-5.8c-10.4-3.4-21-5.4-31.8-6.2c-2-0.1-4-0.4-6.5-0.7c5.8-7.2,12.5-12.6,19.7-17.3
				c18.5-12.1,39.1-18.4,60.9-21.2c32-4.1,63-0.3,92.4,13.6c14.1,6.6,26.5,15.5,36,28C394.1,315.5,394.5,316.3,395.2,317.4z"/>
			<path d="M109.9,442c-11.9,0-23.4,0-35.2,0c0-51.4,0-102.6,0-154.1c11.7,0,23.3,0,35.2,0C109.9,339.2,109.9,390.4,109.9,442z"/>
			<path d="M312.7,222.7c10.6-45.5,46.3-63.4,91.9-49.5c-8.3,45.9-42.8,70.2-87.4,57c4.9-2.9,9.6-5.7,14.3-8.5
				c10.9-6.5,21.8-12.9,32.7-19.4c0.9-0.6,2.3-1,2.7-1.8c0.7-1.7,1.6-4,0.9-5.4c-0.5-1.1-3.2-1.5-4.9-1.7c-1-0.1-2.2,1-3.2,1.6
				c-14.5,8.6-28.9,17.1-43.4,25.7C315.2,221.3,314.2,221.9,312.7,222.7z"/>
			<path d="M168.1,173.3c47.4-14.8,82.7,6,91.9,49.3c-7.4-4.4-14.6-8.6-21.8-12.9c-8.5-5-17-10.1-25.4-15.1c-1-0.6-2.2-1.6-3.2-1.5
				c-1.6,0.2-3.8,0.8-4.5,2c-0.6,1.2,0,3.4,0.7,4.9c0.4,0.9,1.9,1.5,2.9,2.1c14.3,8.5,28.7,17,43,25.5c1.2,0.7,2.5,1.5,3.8,2.4
				C218.2,241.5,179.5,227.1,168.1,173.3z"/>
			<path d="M118.9,429.1c0-43.7,0-86.8,0-130.3c5.5,0,11-0.3,16.3,0.1c2.6,0.2,4.1,2.5,4.1,5.3c0.1,3.8,0,7.6,0,11.3
				c0,35,0,70,0,105c0,7.2-1.4,8.6-8.5,8.6C127,429.1,123.1,429.1,118.9,429.1z"/>
			<path d="M283.5,225.9c0-9.5,0-19,0-28.5c0-3.9,1.6-5.9,4.4-5.9s4.3,2.1,4.3,6c0,19,0,38,0,56.9c0,3.8-1.7,6-4.4,6
				c-2.7-0.1-4.2-2.2-4.2-6.1C283.4,244.9,283.5,235.4,283.5,225.9z"/>
		</g>
	</g>
</g>
</svg>
